HIERARCHY
ROOT SpineBase
{
  OFFSET 0.000000 0.000000 0.000000
  CHANNELS 6 Xposition Yposition Zposition Zrotation Xrotation Yrotation
  JOINT SpineMid
  {
    OFFSET 0.000000 32.075580 0.000000
    CHANNELS 3 Zrotation Xrotation Yrotation
    JOINT SpineShoulder
    {
      OFFSET -0.187285 23.819278 -0.923996
      CHANNELS 3 Zrotation Xrotation Yrotation
      JOINT Neck
      {
        OFFSET -0.145439 7.878087 -0.678064
        CHANNELS 3 Zrotation Xrotation Yrotation
        JOINT Head
        {
          OFFSET -5.339353 10.820415 4.965065
          CHANNELS 3 Zrotation Xrotation Yrotation
          End Site
          {
            OFFSET 0 0 0
          }
        }
      }
      JOINT ShoulderLeft
      {
        OFFSET -7.799140 -6.827417 15.843677
        CHANNELS 3 Zrotation Xrotation Yrotation
        JOINT ElbowLeft
        {
          OFFSET -2.539630 -21.429226 5.656879
          CHANNELS 3 Zrotation Xrotation Yrotation
          JOINT WristLeft
          {
            OFFSET -1.315271 -27.733493 -2.707568
            CHANNELS 3 Zrotation Xrotation Yrotation
            JOINT HandLeft
            {
              OFFSET -1.300116 -5.485711 -1.533205
              CHANNELS 3 Zrotation Xrotation Yrotation
              JOINT HandTipLeft
              {
                OFFSET -1.586788 -6.862024 -0.972921
                CHANNELS 3 Zrotation Xrotation Yrotation
                End Site
                {
                  OFFSET 0 0 0
                }
              }
              JOINT ThumbLeft
              {
                OFFSET 2.554627 0.152258 -2.614728
                CHANNELS 3 Zrotation Xrotation Yrotation
                End Site
                {
                  OFFSET 0 0 0
                }
              }
            }
          }
        }
      }
      JOINT ShoulderRight
      {
        OFFSET 7.304275 -3.434280 -14.442924
        CHANNELS 3 Zrotation Xrotation Yrotation
        JOINT ElbowRight
        {
          OFFSET 4.834516 -23.558865 -8.560515
          CHANNELS 3 Zrotation Xrotation Yrotation
          JOINT WristRight
          {
            OFFSET -4.882283 -26.186990 -3.554562
            CHANNELS 3 Zrotation Xrotation Yrotation
            JOINT HandRight
            {
              OFFSET -1.393480 -8.037010 1.427933
              CHANNELS 3 Zrotation Xrotation Yrotation
              JOINT HandTipRight
              {
                OFFSET -1.210513 -8.244302 -0.042793
                CHANNELS 3 Zrotation Xrotation Yrotation
                End Site
                {
                  OFFSET 0 0 0
                }
              }
              JOINT ThumbRight
              {
                OFFSET -2.824546 2.186448 4.888966
                CHANNELS 3 Zrotation Xrotation Yrotation
                End Site
                {
                  OFFSET 0 0 0
                }
              }
            }
          }
        }
      }
    }
  }
  JOINT HipLeft
  {
    OFFSET -3.596137 -0.199324 2.194383
    CHANNELS 3 Zrotation Xrotation Yrotation
    JOINT KneeLeft
    {
      OFFSET 1.858729 -36.049645 5.787770
      CHANNELS 3 Zrotation Xrotation Yrotation
      JOINT AnkleLeft
      {
        OFFSET 8.126273 -32.167540 3.671402
        CHANNELS 3 Zrotation Xrotation Yrotation
        JOINT FootLeft
        {
          OFFSET -10.196112 -3.553503 -8.243442
          CHANNELS 3 Zrotation Xrotation Yrotation
          End Site
          {
            OFFSET 0 0 0
          }
        }
      }
    }
  }
  JOINT HipRight
  {
    OFFSET 1.568516 2.344997 -9.895369
    CHANNELS 3 Zrotation Xrotation Yrotation
    JOINT KneeRight
    {
      OFFSET 10.483897 -35.704984 -4.442510
      CHANNELS 3 Zrotation Xrotation Yrotation
      JOINT AnkleRight
      {
        OFFSET 10.539975 -34.159850 0.613458
        CHANNELS 3 Zrotation Xrotation Yrotation
        JOINT FootRight
        {
          OFFSET -10.430047 -3.478474 -8.131933
          CHANNELS 3 Zrotation Xrotation Yrotation
          End Site
          {
            OFFSET 0 0 0
          }
        }
      }
    }
  }
}
MOTION
Frames: 8
Frame Time: 0.033333
88.410612 72.968135 299.947946 -0.374103 -2.134633 66.835313 0.054177 -0.375424 -66.867079 0.074250 -0.281856 -0.024048 0.247380 4.260978 0.734119 0.000000 0.000000 0.000000 3.396335 11.415847 -0.537532 -21.834745 16.000250 1.674164 12.181500 6.813124 -3.155215 -11.815923 -10.524731 -1.740651 0.000000 0.000000 0.000000 0.000000 0.000000 0.000000 -4.561217 -4.229482 0.233268 -14.820515 -6.492569 4.589313 4.764917 8.386748 -6.315263 -27.658037 14.248482 7.109470 0.000000 0.000000 0.000000 0.000000 0.000000 0.000000 -5.656758 3.978296 -67.845507 4.477860 -1.100915 -0.906727 1.568287 7.008510 1.862100 0.000000 0.000000 0.000000 -2.820933 6.820418 -66.155789 5.820972 -8.014887 -3.752449 1.313590 10.081018 3.019661 0.000000 0.000000 0.000000
88.284554 72.973113 299.802691 -0.572958 -2.328632 66.731806 0.155826 -0.390472 -66.775804 0.042486 -0.276399 -0.034493 0.302090 4.384067 0.819569 0.000000 0.000000 0.000000 3.438957 11.537703 -0.552334 -21.603946 16.449557 1.751539 13.841276 3.961377 -2.866083 -15.994307 -8.211400 -2.077245 0.000000 0.000000 0.000000 0.000000 0.000000 0.000000 -4.421313 -4.248196 0.238204 -14.818603 -6.183150 4.633783 4.609104 7.331318 -6.259922 -28.918468 15.882808 7.954206 0.000000 0.000000 0.000000 0.000000 0.000000 0.000000 -5.302097 3.756347 -67.746192 4.304451 -1.309779 -0.966608 1.595746 7.162207 1.900683 0.000000 0.000000 0.000000 -2.398665 6.538738 -66.084035 5.525826 -8.104019 -3.749530 1.382422 10.084114 3.015205 0.000000 0.000000 0.000000
88.178689 72.942932 299.863148 -0.691189 -2.661921 66.606789 0.262023 -0.362530 -66.661579 0.012759 -0.230878 -0.043017 0.435789 4.616513 0.853642 0.000000 0.000000 0.000000 3.508526 11.754140 -0.565589 -21.349084 17.106460 1.810428 14.187775 1.631499 -2.527362 -16.619119 -4.105555 -2.023641 0.000000 0.000000 0.000000 0.000000 0.000000 0.000000 -4.201229 -4.063471 0.233358 -14.996739 -5.975864 4.675633 4.364949 5.719846 -6.195540 -29.846893 16.053623 8.568494 0.000000 0.000000 0.000000 0.000000 0.000000 0.000000 -4.653149 3.793839 -67.603722 4.187007 -1.754911 -1.028654 1.612522 7.316611 1.938884 0.000000 0.000000 0.000000 -1.522569 6.502935 -65.890961 5.132950 -8.607213 -3.858575 1.491014 10.119421 3.017217 0.000000 0.000000 0.000000
88.118049 72.914793 299.820750 -0.749884 -2.837923 66.503731 0.307195 -0.356574 -66.564388 0.003979 -0.190813 -0.046411 0.476076 4.828564 0.923040 0.000000 0.000000 0.000000 3.505046 11.578510 -0.533041 -21.034971 18.209676 1.936364 16.020516 -1.846849 -1.983687 -17.568471 0.435090 -1.660579 0.000000 0.000000 0.000000 0.000000 0.000000 0.000000 -4.081294 -3.951681 0.226589 -15.218835 -5.928451 4.713691 4.650764 4.203526 -6.157548 -31.841540 18.445369 9.899876 0.000000 0.000000 0.000000 0.000000 0.000000 0.000000 -4.334432 3.790619 -67.491281 4.117942 -2.015978 -1.076309 1.610261 7.452294 1.971666 0.000000 0.000000 0.000000 -1.069002 6.463567 -65.759148 4.840748 -8.880389 -3.924730 1.609222 10.164215 3.021215 0.000000 0.000000 0.000000
88.104584 72.886387 299.633963 -0.749691 -2.831789 66.411069 0.346456 -0.341244 -66.470904 0.030115 -0.140205 -0.043074 0.514757 4.892087 0.963359 0.000000 0.000000 0.000000 3.443148 11.103825 -0.478305 -20.679721 19.702032 2.088100 15.282592 -5.859026 -1.234290 -13.565443 0.521766 -1.049234 0.000000 0.000000 0.000000 0.000000 0.000000 0.000000 -4.039366 -4.009857 0.199818 -15.441451 -5.959582 4.744502 5.351377 3.078287 -6.121781 -33.749558 19.103993 10.605734 0.000000 0.000000 0.000000 0.000000 0.000000 0.000000 -4.487102 3.704943 -67.404396 4.065514 -1.914812 -1.091682 1.643075 7.512046 1.987605 0.000000 0.000000 0.000000 -1.092740 6.393505 -65.685241 4.667317 -8.947979 -3.953214 1.715086 10.275983 3.045876 0.000000 0.000000 0.000000
88.133121 72.852847 299.420225 -0.684540 -2.698576 66.355795 0.304191 -0.312183 -66.410478 0.048713 -0.102989 -0.038919 0.549005 4.748361 0.920194 0.000000 0.000000 0.000000 3.506280 10.859916 -0.444487 -20.542418 20.645807 2.116991 14.508977 -9.921497 -0.488897 -12.050049 4.068565 -1.034582 0.000000 0.000000 0.000000 0.000000 0.000000 0.000000 -3.968946 -4.098343 0.157149 -15.665648 -6.041232 4.780331 6.459364 2.121888 -6.058408 -35.400435 18.002030 10.586447 0.000000 0.000000 0.000000 0.000000 0.000000 0.000000 -4.859320 3.649447 -67.358402 4.068852 -1.733274 -1.095035 1.669582 7.557635 1.999808 0.000000 0.000000 0.000000 -1.385484 6.363027 -65.658365 4.595085 -8.948505 -3.974619 1.798968 10.427368 3.083771 0.000000 0.000000 0.000000
88.183485 72.812507 299.252107 -0.573942 -2.590407 66.272686 0.164387 -0.261433 -66.322354 0.076809 -0.033287 -0.035318 0.663560 4.767233 0.881552 0.000000 0.000000 0.000000 3.489705 10.551875 -0.404645 -20.175810 21.302990 2.120623 12.372799 -10.375485 -0.616129 -7.174100 2.844485 -1.074389 0.000000 0.000000 0.000000 0.000000 0.000000 0.000000 -3.917811 -4.121712 0.128255 -15.819182 -6.122606 4.803459 7.689715 1.718208 -5.998251 -37.012842 16.395850 10.228410 0.000000 0.000000 0.000000 0.000000 0.000000 0.000000 -5.176083 3.691925 -67.277271 4.057945 -1.652408 -1.109655 1.734062 7.636894 2.021766 0.000000 0.000000 0.000000 -1.657466 6.450792 -65.578173 4.598233 -9.021814 -4.022569 1.854945 10.602579 3.130755 0.000000 0.000000 0.000000
88.204363 72.788808 299.154367 -0.529641 -2.556516 66.237819 0.139891 -0.257020 -66.284823 0.080822 -0.054779 -0.033898 0.718788 4.705904 0.799444 0.000000 0.000000 0.000000 3.494283 10.537498 -0.397927 -20.065451 21.403260 2.088378 11.534251 -8.803189 -0.989056 -6.331804 0.320721 -0.914922 0.000000 0.000000 0.000000 0.000000 0.000000 0.000000 -3.882226 -4.122130 0.099268 -15.876036 -6.119193 4.836127 8.060976 1.015636 -5.926243 -37.210298 16.426417 10.332396 0.000000 0.000000 0.000000 0.000000 0.000000 0.000000 -5.295486 3.685922 -67.241335 3.951864 -1.637281 -1.131186 1.835564 7.698771 2.041020 0.000000 0.000000 0.000000 -1.716186 6.504265 -65.533520 4.580957 -9.150468 -4.073287 1.883188 10.728299 3.165366 0.000000 0.000000 0.000000
